HIERARCHY
ROOT pelvis
{
  OFFSET 0 100 0
  CHANNELS 6 Xposition Yposition Zposition Zrotation Xrotation Yrotation
  JOINT pelvis_right_femur
  {
    OFFSET -10.78128 -3.44521 -0.5502486
    CHANNELS 3 Zrotation Xrotation Yrotation
    JOINT right_femur_tibia
    {
      OFFSET -0.8047443 -44.0398 -0.1307829
      CHANNELS 3 Zrotation Xrotation Yrotation
      JOINT right_tibia_foot
      {
        OFFSET 3.006224 -47.83518 -5
        CHANNELS 3 Zrotation Xrotation Yrotation
        End Site
        {
          OFFSET 0 -5 15
        }
      }
    }
  }
  JOINT pelvis_left_femur
  {
    OFFSET 10.78128 -3.44521 -0.5502486
    CHANNELS 3 Zrotation Xrotation Yrotation
    JOINT left_femur_tibia
    {
      OFFSET 0.8047443 -44.0398 -0.1307829
      CHANNELS 3 Zrotation Xrotation Yrotation
      JOINT left_tibia_foot
      {
        OFFSET -4.370144 -48.10324 -4.275266
        CHANNELS 3 Zrotation Xrotation Yrotation
        End Site
        {
          OFFSET 0 -5 15
        }
      }
    }
  }
  JOINT pelvis_spine1
  {
    OFFSET 0 6.468898 -3.129235
    CHANNELS 3 Zrotation Xrotation Yrotation
    JOINT spine1
    {
      OFFSET 0 23.15396 4.99043
      CHANNELS 3 Zrotation Xrotation Yrotation
      JOINT spine2
      {
        OFFSET 0 20.79997 -5.064912
        CHANNELS 3 Zrotation Xrotation Yrotation
        JOINT neck
        {
          OFFSET 0 14.38658 9.616178
          CHANNELS 3 Zrotation Xrotation Yrotation
          End Site
          {
            OFFSET 0 20 0
          }
        }
      }
      JOINT right_manubrium
      {
        OFFSET -5.722621 16.35077 3.967754
        CHANNELS 3 Zrotation Xrotation Yrotation
        JOINT right_clavicle
        {
          OFFSET -13.16364 1.694482 -4.693211
          CHANNELS 3 Zrotation Xrotation Yrotation
          JOINT right_humerus
          {
            OFFSET -28.5034 -0.3100689 -2.792744
            CHANNELS 3 Zrotation Xrotation Yrotation
            JOINT right_radius
            {
              OFFSET -25.15693 0.02248979 -1.271978
              CHANNELS 3 Zrotation Xrotation Yrotation
              End Site
              {
                OFFSET -15 0 0
              }
            }
          }
        }
      }
      JOINT left_manubrium
      {
        OFFSET 5.722621 16.35077 3.967754
        CHANNELS 3 Zrotation Xrotation Yrotation
        JOINT left_clavicle
        {
          OFFSET 13.16364 1.694482 -4.693211
          CHANNELS 3 Zrotation Xrotation Yrotation
          JOINT left_humerus
          {
            OFFSET 29.39168 -1.063119 -2.237045
            CHANNELS 3 Zrotation Xrotation Yrotation
            JOINT left_radius
            {
              OFFSET 24.59957 -0.9528479 0.9047498
              CHANNELS 3 Zrotation Xrotation Yrotation
              End Site
              {
                OFFSET 15 -0 -0
              }
            }
          }
        }
      }
    }
  }
}
MOTION
Frames: 17
Frame Time: 0.0416666666667
26.95801 101.5146 243.2926 1.816723 -8.634198 -5.136035 0.2230662 22.30422 8.187437 -0 9.56545 -0 6.152307 -14.72256 1.346357 0.53131 -25.72034 -4.055075 -0 31.77624 -0 -8.542937 -5.861645 20.07708 -1.079251 -0.4490284 10.14711 -1.793815 10.27785 -2.026333 2.332698 21.6692 5.201615 1.881338 -14.69818 6.971871 1.492986 -21.68906 11.80061 80.30157 22.19519 -6.373018 -0 0 26.12354 -26.26161 14.34053 13.36893 4.921482 -14.9101 -2.997597 -93.60223 21.89608 24.84011 0 0 -12.41904 -3.913123 6.588292 16.34022
27.5674 100.6538 249.9961 1.815505 -8.410792 -5.465544 -0.4631184 23.51853 8.129972 -0 13.82608 -0 6.931122 -14.39647 1.496847 -0.02928799 -26.08712 -4.77748 -0 27.80285 -0 -8.435836 -6.167437 19.79334 -1.179145 -0.6464169 10.09089 -2.082248 9.73091 -1.863769 2.435726 21.57495 5.163841 1.702104 -14.79142 7.200251 1.189866 -21.88852 11.47611 80.03331 21.68247 -5.325673 -0 0 27.12153 -26.43943 14.0591 13.6498 4.746345 -14.01214 -2.95498 -93.88111 22.13235 25.69002 0 0 -10.97045 -4.262152 6.521937 16.91165
28.23583 100.0626 256.9709 1.944902 -8.305913 -5.558166 -1.275863 23.89034 7.898443 -0 19.29807 -0 7.582897 -13.27283 1.229156 -1.150066 -25.0047 -5.818193 -0 25.65257 -0 -8.277019 -6.499219 19.34512 -1.436674 -0.9849945 9.974818 -2.270096 9.301149 -1.809825 2.5565 21.59204 5.128569 1.54282 -14.82801 7.446887 1.100843 -21.66139 11.13003 80.17679 21.37924 -5.034611 -0 0 27.20932 -26.4208 13.86211 13.69984 4.533847 -13.32544 -2.976519 -93.83128 22.45093 25.95045 0 0 -9.837588 -4.502739 6.518893 17.37609
28.92842 99.91332 264.11 2.183632 -8.37663 -5.372844 -2.100225 23.20919 7.437694 -0 25.84032 -0 8.036638 -11.57243 0.4923558 -2.539652 -22.55547 -6.953172 -0 24.932 -0 -8.081602 -6.920716 18.84335 -1.821772 -1.366068 9.765035 -2.35951 9.003208 -1.825069 2.662432 21.74108 5.107777 1.387142 -14.77757 7.699731 1.230402 -21.03833 10.8035 80.70948 21.30397 -5.459714 -0 0 26.39142 -26.19631 13.75788 13.51466 4.335909 -12.91208 -3.044346 -93.4124 22.84825 25.54267 0 0 -9.168469 -4.601655 6.596094 17.66191
29.61446 100.269 271.2401 2.439322 -8.646809 -4.891987 -2.697203 21.15937 6.728459 -0 32.91796 -0 8.224902 -9.802749 -0.6478124 -3.902448 -18.91007 -7.98047 -0 24.88005 -0 -7.835833 -7.562883 18.31295 -2.22714 -1.595655 9.352033 -2.360283 8.827828 -1.930086 2.71546 22.02022 5.119325 1.210906 -14.63123 7.952816 1.533067 -20.14807 10.53999 81.57237 21.44815 -6.445291 -0 0 24.84379 -25.76539 13.73977 13.12931 4.172345 -12.83876 -3.165198 -92.57638 23.31207 24.38993 0 0 -9.050902 -4.521062 6.765938 17.71114
30.26951 101.0712 278.1525 2.619916 -9.095609 -4.132667 -2.886271 17.52409 5.811564 -0 39.77216 -0 8.090526 -8.441719 -2.059741 -5.023261 -14.30611 -8.781126 -0 24.74825 -0 -7.532646 -8.525572 17.74303 -2.542108 -1.513351 8.63977 -2.281629 8.747695 -2.166515 2.692355 22.41114 5.175599 0.9975636 -14.39389 8.204938 1.928804 -19.13159 10.35966 82.69848 21.77934 -7.814511 -0 0 22.81209 -25.14068 13.78838 12.59714 4.055352 -13.14111 -3.349963 -91.30529 23.81201 22.45539 0 0 -9.522486 -4.235733 7.033617 17.48752
30.87995 102.1708 284.6953 2.701777 -9.588631 -3.135264 -2.722592 12.50581 4.814567 -0 45.26734 -0 7.63976 -7.613378 -3.539311 -5.803978 -9.105125 -9.347203 -0 24.12888 -0 -7.218971 -9.73597 17.11752 -2.72745 -1.160952 7.642857 -2.121596 8.701186 -2.572381 2.620324 22.86715 5.264706 0.7611161 -14.08726 8.461193 2.281419 -18.07061 10.21069 84.01826 22.22094 -9.430995 -0 0 20.58992 -24.36848 13.86144 11.99083 4.022482 -13.75809 -3.591526 -89.68125 24.29465 19.82523 0 0 -10.55517 -3.761286 7.39241 16.99625
31.44555 103.3402 290.8357 2.69649 -9.922951 -1.958138 -2.371795 6.577013 3.887497 -0 48.02297 -0 6.919212 -7.228846 -4.85161 -6.208027 -3.740049 -9.73403 -0 22.83762 -0 -6.971328 -11.02254 16.41661 -2.796425 -0.7063146 6.446685 -1.872469 8.605544 -3.178118 2.559261 23.32344 5.35623 0.53527 -13.74366 8.727245 2.425955 -17.00617 10.00339 85.45049 22.67486 -11.18304 -0 0 18.48779 -23.51509 13.90457 11.3911 4.131158 -14.57377 -3.867171 -87.84983 24.70487 16.6645 0 0 -12.08944 -3.136191 7.830497 16.26274
31.96788 104.3299 296.64 2.645136 -9.990736 -0.6632606 -2.001488 0.2572108 3.116627 -0 47.45603 -0 5.977729 -7.152389 -5.903038 -6.29555 1.473204 -10.01116 -0 20.9896 -0 -6.817824 -12.306 15.63977 -2.80189 -0.2836016 5.170918 -1.54635 8.416546 -3.952426 2.555343 23.7274 5.413246 0.3486069 -13.39999 8.988008 2.298381 -15.94697 9.701 86.90563 23.07391 -12.9974 -0 0 16.6322 -22.62964 13.88543 10.825 4.404817 -15.50096 -4.142978 -85.93763 25.00807 13.15756 0 0 -14.03413 -2.39716 8.33554 15.31806
32.44048 104.9317 302.2484 2.628932 -9.768078 0.6777006 -1.79597 -5.852201 2.521577 -0 43.68697 -0 4.861632 -7.236758 -6.731948 -6.213743 6.296687 -10.2243 -0 18.98717 -0 -6.734968 -13.62158 14.81036 -2.836397 0.01730964 3.980695 -1.177507 8.126516 -4.795113 2.642995 24.03106 5.387092 0.2270311 -13.10409 9.201148 1.927833 -14.87691 9.31938 88.27039 23.37853 -14.825 -0 0 14.97148 -21.74295 13.78805 10.2606 4.834974 -16.48389 -4.370434 -84.04779 25.19433 9.512338 0 0 -16.26638 -1.57708 8.899002 14.19295
32.85185 105.0145 307.8228 2.688981 -9.292064 1.975332 -1.821649 -11.30212 2.054753 -0 37.35413 -0 3.614323 -7.403159 -7.402382 -6.08366 10.59407 -10.38344 -0 17.24435 -0 -6.7013 -14.98491 13.96773 -2.954795 0.1691551 2.998851 -0.8001098 7.753425 -5.597126 2.827628 24.21434 5.253353 0.1804671 -12.89095 9.333304 1.397581 -13.79166 8.907454 89.46563 23.58351 -16.61524 -0 0 13.40619 -20.86292 13.6147 9.656221 5.382791 -17.48409 -4.511326 -82.26401 25.27056 5.921606 0 0 -18.64034 -0.7024849 9.507734 12.92979
33.18925 104.5728 313.4822 2.796226 -8.680768 3.135908 -1.938518 -15.8348 1.633994 -0 29.78952 -0 2.277149 -7.694003 -7.962375 -5.955273 14.32125 -10.47251 -0 16.17235 -0 -6.725395 -16.29674 13.17867 -3.123726 0.2191639 2.279786 -0.4425225 7.343892 -6.239475 3.069225 24.30029 5.03189 0.193727 -12.77799 9.373442 0.8586254 -12.72449 8.557821 90.4692 23.7227 -18.28636 -0 0 11.82439 -19.96208 13.39217 8.970665 5.958151 -18.46509 -4.54392 -80.67707 25.25345 2.592924 0 0 -20.94159 0.2015906 10.13765 11.60387
33.43717 103.7341 319.2932 2.89625 -8.076947 4.087255 -1.935837 -19.29306 1.232215 -0 22.5015 -0 0.8911382 -8.159535 -8.443599 -5.826968 17.46563 -10.47728 -0 16.14208 -0 -6.825205 -17.39031 12.51883 -3.268589 0.2269991 1.826518 -0.1234616 6.953777 -6.630977 3.315318 24.33116 4.758548 0.2434097 -12.76944 9.322977 0.4572818 -11.72469 8.353229 91.28765 23.83971 -19.74968 -0 0 10.14921 -19.00769 13.15098 8.179664 6.460321 -19.37854 -4.462369 -79.37777 25.17487 -0.266648 0 0 -22.93523 1.1047 10.76266 10.30429
33.58042 102.7004 325.3163 2.913767 -7.590405 4.819837 -1.650457 -21.56954 0.9812809 -0 16.70658 -0 -0.4873841 -8.678689 -8.840068 -5.616955 19.99014 -10.42456 -0 17.41622 -0 -7.015427 -18.03252 12.06149 -3.309315 0.1934633 1.559889 0.1553349 6.632096 -6.791379 3.53649 24.35462 4.458981 0.3147535 -12.84715 9.19184 0.2401851 -10.83443 8.293024 91.93923 23.95628 -20.93076 -0 0 8.44193 -18.00479 12.90382 7.32094 6.824306 -20.12727 -4.286162 -78.4668 25.08925 -2.456895 0 0 -24.40176 1.955947 11.3594 9.123611
33.61343 101.7081 331.6327 2.763106 -7.316876 5.411395 -0.953249 -22.53651 1.112732 -0 13.45771 -0 -1.78432 -9.010361 -9.107594 -5.187758 21.7973 -10.37501 -0 20.23813 -0 -7.303672 -17.93358 11.89606 -3.164673 0.08101266 1.352418 0.3992754 6.426949 -6.811937 3.719604 24.42439 4.150237 0.3998484 -12.97732 8.993539 0.1910583 -10.09637 8.324117 92.43795 24.07768 -21.74838 -0 0 6.868759 -16.98899 12.65206 6.479434 7.002753 -20.57095 -4.052589 -78.06845 25.06653 -3.754167 0 0 -25.10405 2.681409 11.90721 8.167288
33.55251 100.9742 338.2885 2.450071 -7.32053 5.935809 0.1280493 -22.14461 1.676491 -0 12.85321 -0 -2.962656 -9.099536 -9.213667 -4.534417 22.70239 -10.34407 -0 24.64509 -0 -7.636647 -17.02553 12.10348 -2.831242 -0.0909936 1.168448 0.6057528 6.369048 -6.749476 3.860405 24.57362 3.844194 0.4939557 -13.12651 8.742517 0.2720976 -9.563656 8.409276 92.75549 24.20803 -22.13299 -0 0 5.581128 -16.018 12.38821 5.737574 6.979293 -20.64794 -3.803046 -78.23474 25.15116 -4.063989 0 0 -24.92457 3.221336 12.39887 7.500777
33.4445 100.6386 345.2 2.082626 -7.658887 6.324283 1.373843 -20.38355 2.487565 -0 13.93578 -0 -4.03146 -9.148703 -9.153804 -3.845067 22.3254 -10.26391 -0 30.49164 -0 -7.878544 -15.49385 12.77831 -2.398346 -0.2096426 1.099676 0.7569757 6.481671 -6.601626 3.957265 24.82031 3.552707 0.5936533 -13.25824 8.454974 0.4335913 -9.328593 8.54322 92.79448 24.35563 -21.99076 -0 0 4.730099 -15.18685 12.09305 5.186351 6.761503 -20.37983 -3.585789 -78.97015 25.35283 -3.393104 0 0 -23.83226 3.519842 12.83536 7.162168
